<?xml version="1.0" encoding="utf-8"?>
<!-- Generator: Adobe Illustrator 26.5.0, SVG Export Plug-In . SVG Version: 6.00 Build 0)  -->
<svg version="1.1" id="Camada_1" xmlns="http://www.w3.org/2000/svg" xmlns:xlink="http://www.w3.org/1999/xlink" x="0px" y="0px"
	 viewBox="0 0 400 100" style="enable-background:new 0 0 400 100;" xml:space="preserve">
<style type="text/css">
	.st0{fill:#FFFFFF;}
	.st1{fill:#095DA7;}
	.st2{fill:#010101;}
	.st3{fill:#1D1D1B;}
</style>
<g>
	<path class="st0" d="M167.7,70h-11.1l8.5-39.9h11.1L167.7,70z M155.2,41.8h-11.1c0.4-1.5,0.1-2.7-0.7-3.5c-0.8-0.8-2.1-1.3-4-1.3
		c-2.5,0-5.1,1.7-5.5,3.6c-0.6,2.9,2.7,3.9,5.5,4.6c6.3,1.7,15.9,2.4,13.6,13.2c-1.8,8.4-10.9,12.4-20.2,12.4
		c-6.8,0-12.8-1.5-14.6-6.6c-0.6-1.8-0.8-4.1-0.2-7h0.2h10.9c-0.8,3.8,1.5,5.8,5.5,5.8c2.6,0,6.1-1.3,6.6-4
		c1.2-5.4-7.3-4.3-15.1-8.1c-3.7-1.8-4.9-5.4-4-9.7c2.5-9.5,11.3-12,19.6-12C150,29.2,157.9,32.2,155.2,41.8 M113.9,46l-1.6,7.7
		H94.5l-1.8,8.5H112l-1.6,7.7H80l8.5-39.9h29.8h0.6l-0.6,2.6l-1.1,5.1H97.9L96.1,46H113.9z M78.4,41.8H67.4c0.4-1.5,0.1-2.7-0.7-3.5
		c-0.8-0.8-2.1-1.3-4-1.3c-2.5,0-5.1,1.7-5.5,3.6c-0.6,2.9,2.7,3.9,5.5,4.6C69,47,78.5,47.6,76.3,58.4c-1.8,8.4-10.9,12.4-20.2,12.4
		c-9.3,0-16.9-2.7-14.8-13.6h11.1c-0.8,3.8,1.5,5.8,5.5,5.8c2.6,0,6.1-1.3,6.6-4c1.2-5.4-7.3-4.3-15.1-8.1c-3.7-1.8-4.9-5.4-4-9.7
		c2.4-9.5,11.3-12,19.6-12C73.3,29.2,81.1,32.2,78.4,41.8 M180.3,31.6v-1.5h11.3v-8.2H25v8.2h11.3v1.5H25v8h11.3V41H25v8.2h11.3v1.5
		H25V59h11.3v1.5H25v8h11.3V70H25v8.1h166.7V70h-11.3v-1.5h11.3v-8h-11.3V59h11.3v-8.3h-11.3v-1.5h11.3V41h-11.3v-1.5h11.3v-8H180.3
		z"/>
	<polygon class="st0" points="212.4,24.6 212.4,27.6 205.4,27.6 205.4,30.5 211.9,30.5 211.9,33.5 205.4,33.5 205.4,36.4 
		212.4,36.4 212.4,39.2 201.3,39.2 201.3,24.6 	"/>
	<path class="st0" d="M218.4,34.5v0.2c0,0.1,0,0.1,0,0.2c0,0,0,0.1,0,0.1c0,0,0,0.1,0,0.1c0,0,0,0.1,0,0.1c0,0,0,0.1,0,0.1
		c0,0.2,0.1,0.3,0.2,0.5c0.1,0.1,0.2,0.3,0.4,0.4c0.2,0.1,0.4,0.2,0.6,0.3c0.3,0.1,0.6,0.1,0.9,0.1c0.4,0,0.7,0,1-0.1
		c0.3-0.1,0.5-0.2,0.7-0.3c0.2-0.1,0.3-0.3,0.4-0.5c0.1-0.2,0.2-0.3,0.2-0.5v0v0c0,0,0,0,0,0v0v0v0c0,0,0,0,0,0v0
		c-0.1-0.1-0.1-0.3-0.3-0.4c-0.1-0.1-0.3-0.3-0.5-0.4c-0.2-0.1-0.4-0.3-0.7-0.4c-0.3-0.1-0.6-0.2-0.9-0.3h0h0c0,0,0,0,0,0
		c0,0,0,0,0,0c-1.1-0.2-2-0.5-2.7-0.8c-0.7-0.3-1.3-0.6-1.7-0.9c-0.4-0.3-0.7-0.7-0.9-1.2c-0.2-0.5-0.3-1-0.4-1.6v-0.1v0v0v0v0
		c0-0.7,0.1-1.3,0.4-1.9c0.3-0.5,0.8-1,1.4-1.4c0.6-0.4,1.3-0.6,2-0.8c0.7-0.2,1.5-0.3,2.4-0.3c1.2,0,2.2,0.2,3,0.4
		c0.8,0.2,1.4,0.6,1.7,1c0.4,0.4,0.7,0.9,0.9,1.4c0.2,0.5,0.3,1.1,0.3,1.8l-4.1,0c0-0.2,0-0.4-0.1-0.6c-0.1-0.2-0.2-0.4-0.4-0.5
		c-0.2-0.2-0.4-0.3-0.6-0.3c-0.2-0.1-0.5-0.1-0.8-0.1c-0.3,0-0.5,0-0.7,0.1c-0.2,0.1-0.4,0.2-0.5,0.3c-0.1,0.1-0.2,0.3-0.3,0.4
		c-0.1,0.1-0.1,0.3-0.1,0.5v0v0v0v0c0,0.1,0.1,0.3,0.2,0.4c0.1,0.1,0.2,0.3,0.3,0.4c0.1,0.1,0.3,0.2,0.5,0.3
		c0.2,0.1,0.4,0.1,0.7,0.2c0.1,0,0.3,0.1,0.5,0.1c0.2,0,0.3,0.1,0.5,0.1c0.2,0,0.3,0.1,0.5,0.1c0.2,0,0.3,0.1,0.5,0.1
		c0.6,0.1,1.1,0.3,1.6,0.5c0.5,0.2,1,0.5,1.5,0.8c0.5,0.3,0.8,0.7,1.1,1.2c0.2,0.5,0.4,1.1,0.4,1.7c0,0.9-0.2,1.6-0.5,2.3
		c-0.3,0.6-0.8,1.1-1.4,1.5c-0.6,0.4-1.3,0.7-2,0.8c-0.7,0.2-1.6,0.3-2.4,0.3c-1.1,0-2-0.1-2.8-0.3c-0.8-0.2-1.5-0.5-2-0.9
		c-0.5-0.4-0.9-1-1.2-1.6c-0.3-0.6-0.4-1.4-0.5-2.2v0H218.4z"/>
	<path class="st0" d="M238.7,28.5c-0.1-0.2-0.3-0.5-0.5-0.7c-0.2-0.2-0.5-0.4-0.8-0.5c-0.3-0.1-0.7-0.2-1.1-0.2
		c-0.6,0-1.1,0.1-1.5,0.3c-0.4,0.2-0.7,0.6-0.8,1c-0.2,0.5-0.3,0.9-0.4,1.4c-0.1,0.5-0.1,1-0.2,1.6v0.1v0.1v0.1V32V32v0.1v0.1v0.1
		c0,0.7,0.1,1.3,0.2,1.8c0.1,0.5,0.3,1,0.5,1.4c0.2,0.4,0.5,0.7,0.8,0.9c0.4,0.2,0.8,0.3,1.3,0.3c0.4,0,0.8-0.1,1.1-0.2
		c0.3-0.1,0.6-0.3,0.8-0.5c0.2-0.2,0.4-0.5,0.5-0.7c0.1-0.3,0.2-0.5,0.2-0.8l4.3,0c0,0.1,0,0.2,0,0.3c0,0.1,0,0.2,0,0.3
		c0,0.1,0,0.2-0.1,0.3c0,0.1-0.1,0.2-0.1,0.3c-0.1,0.5-0.4,0.9-0.7,1.4c-0.3,0.4-0.7,0.9-1.2,1.2c-0.5,0.4-1.1,0.7-1.9,0.9
		c-0.7,0.2-1.6,0.3-2.6,0.3c-1.3,0-2.5-0.2-3.5-0.5c-1-0.3-1.7-0.8-2.3-1.5c-0.6-0.6-1-1.4-1.3-2.3c-0.3-0.9-0.5-1.8-0.5-2.9v-0.1
		v-0.1v-0.1V32c0-1.4,0.1-2.6,0.5-3.6c0.3-1,0.8-1.8,1.5-2.4c0.7-0.6,1.4-1,2.3-1.3c0.9-0.3,1.9-0.4,3-0.4c1.2,0,2.3,0.1,3.2,0.3
		c0.9,0.2,1.6,0.6,2.1,1c0.5,0.5,0.9,1,1.2,1.6c0.3,0.6,0.4,1.2,0.4,2l-4.3,0C238.9,29,238.9,28.7,238.7,28.5"/>
	<path class="st0" d="M249.2,33.7c0.1,0.5,0.4,1.1,0.6,1.6c0.3,0.5,0.6,0.9,1.1,1.1c0.4,0.3,1,0.4,1.6,0.4c0.5,0,1-0.1,1.4-0.3
		c0.4-0.2,0.7-0.5,1-0.9c0.3-0.4,0.5-0.9,0.6-1.5c0.1-0.6,0.2-1.3,0.2-2.1c0-0.6-0.1-1.2-0.2-1.8c-0.1-0.6-0.3-1.1-0.6-1.5
		c-0.3-0.5-0.6-0.8-1-1.1c-0.4-0.2-0.9-0.4-1.5-0.4c-0.6,0-1.1,0.1-1.5,0.4c-0.4,0.3-0.7,0.6-1,1.1c-0.2,0.5-0.4,1-0.6,1.6
		c-0.1,0.5-0.2,1.1-0.3,1.7v0C249,32.6,249,33.1,249.2,33.7 M245.1,29.3c0.8-1.9,1.7-3.7,3.8-4.4c1.9-0.7,4.2-0.7,6.1-0.2
		c1.3,0.3,2.6,1,3.4,2c1.2,1.4,1.5,3.3,1.5,5.1c0,2.5-0.8,5.1-2.8,6.6c-1.5,1.1-3.5,1.3-5.3,1.2c-1.5-0.1-3-0.3-4.2-1.1
		c-1.3-0.8-2.2-2.2-2.6-3.6C244.5,33,244.6,31,245.1,29.3"/>
	<polygon class="st0" points="266.1,24.6 266.1,36.2 272.7,36.2 272.7,39.2 262,39.2 262,24.6 	"/>
	<path class="st0" d="M281.2,27.6l-1.9,5.9h3.7L281.2,27.6z M283.9,24.6l5.7,14.6H285l-1-2.7h-5.7l-0.9,2.7h-4.3l5.9-14.6H283.9z"/>
	<path class="st0" d="M207.6,57.2c0.7,0,1.3-0.1,1.7-0.3c0.5-0.2,0.9-0.5,1.2-0.9c0.3-0.4,0.6-0.8,0.8-1.3c0.2-0.4,0.3-0.9,0.3-1.4
		v0c0,0,0,0,0-0.1v-0.1v0v-0.1v-0.1v0V53v-0.1v-0.1c0,0,0-0.1,0-0.1v-0.1c0-0.1,0-0.1,0-0.2c0-0.1,0-0.1,0-0.2
		c-0.1-0.5-0.2-0.9-0.4-1.4c-0.2-0.4-0.5-0.8-0.8-1.2c-0.4-0.4-0.7-0.7-1.2-0.9c-0.4-0.2-0.9-0.3-1.5-0.3l-2.2,0v8.7H207.6z
		 M207.6,45.5c1.7,0,3.1,0.2,4.2,0.6c1.1,0.4,2,0.9,2.5,1.7c0.6,0.7,1,1.5,1.3,2.4c0.3,0.9,0.4,1.8,0.5,2.7V53v0v0v0.1v0v0
		c0,0,0,0.1,0,0.1v0.1v0.1v0.1c0,1.2-0.2,2.2-0.6,3c-0.4,0.8-0.9,1.5-1.6,2.1c-0.7,0.5-1.4,0.9-2.2,1.2c-0.8,0.3-1.6,0.4-2.4,0.4
		h-7.8V45.5H207.6z"/>
	<polygon class="st0" points="229.2,45.5 229.2,48.5 222.3,48.5 222.3,51.4 228.8,51.4 228.8,54.4 222.3,54.4 222.3,57.2 
		229.2,57.2 229.2,60.1 218.1,60.1 218.1,45.5 	"/>
	<path class="st0" d="M242.3,51.7h1.6c0,0,0.1,0,0.1,0h0.1h0.1h0.1c0.2,0,0.5-0.1,0.7-0.1c0.2-0.1,0.4-0.1,0.7-0.2
		c0.2-0.1,0.4-0.3,0.5-0.5c0.1-0.2,0.2-0.5,0.2-0.8c0-0.3-0.1-0.5-0.2-0.7c-0.1-0.2-0.3-0.4-0.5-0.5c-0.2-0.1-0.5-0.2-0.7-0.3
		c-0.3-0.1-0.6-0.1-0.9-0.1l-1.7,0V51.7z M244.7,45.5C244.7,45.5,244.7,45.5,244.7,45.5l0.2,0h0.1h0.1c0.7,0,1.3,0.1,2,0.2
		c0.6,0.1,1.2,0.3,1.8,0.6c0.6,0.3,1,0.6,1.3,1.1c0.3,0.5,0.4,1.1,0.4,1.9c0,0.6-0.1,1.1-0.3,1.5c-0.2,0.4-0.4,0.8-0.8,1.1
		c-0.3,0.3-0.7,0.5-1.1,0.7c-0.4,0.2-0.9,0.3-1.3,0.4c0.7,0,1.3,0.2,1.7,0.4c0.4,0.2,0.8,0.6,0.9,1.1c0.2,0.5,0.3,0.9,0.4,1.4
		c0.1,0.5,0.2,1,0.3,1.6v0v0v0c0,0,0,0,0,0c0,0.2,0.1,0.4,0.1,0.7c0,0.2,0,0.4,0.1,0.7c0,0.2,0.1,0.4,0.1,0.6
		c0.1,0.2,0.1,0.4,0.2,0.6h-4.4c-0.1-0.1-0.1-0.2-0.1-0.4c0-0.1-0.1-0.3-0.1-0.5c0-0.2,0-0.4,0-0.5c0-0.2,0-0.4,0-0.6v-0.1V58
		c0,0,0,0,0,0v0v-0.1v-0.1c0-0.4-0.1-0.8-0.1-1.1c-0.1-0.4-0.2-0.7-0.3-1c-0.1-0.3-0.3-0.6-0.5-0.7c-0.3-0.2-0.6-0.2-1-0.2l-1.9,0
		v5.6h-4.1V45.5H244.7z"/>
	<polygon class="st0" points="264,45.5 264,48.5 257.1,48.5 257.1,51.4 263.6,51.4 263.6,54.4 257.1,54.4 257.1,57.2 264,57.2 
		264,60.1 252.9,60.1 252.9,45.5 	"/>
	<polygon class="st0" points="276.8,45.5 276.8,48.5 270.6,48.5 270.6,51.9 276.3,51.9 276.3,54.7 270.6,54.7 270.6,60.1 
		266.4,60.1 266.4,45.5 	"/>
	<polygon class="st0" points="289.9,45.5 289.9,48.5 283,48.5 283,51.4 289.5,51.4 289.5,54.4 283,54.4 283,57.2 289.9,57.2 
		289.9,60.1 278.8,60.1 278.8,45.5 	"/>
	<path class="st0" d="M296.3,51.7h1.6c0,0,0.1,0,0.1,0h0.1h0.1h0.1c0.2,0,0.5-0.1,0.7-0.1c0.2-0.1,0.4-0.1,0.7-0.2
		c0.2-0.1,0.4-0.3,0.5-0.5c0.1-0.2,0.2-0.5,0.2-0.8c0-0.3-0.1-0.5-0.2-0.7c-0.1-0.2-0.3-0.4-0.5-0.5c-0.2-0.1-0.5-0.2-0.7-0.3
		c-0.3-0.1-0.6-0.1-0.9-0.1l-1.7,0V51.7z M298.7,45.5C298.7,45.5,298.7,45.5,298.7,45.5l0.2,0h0.1h0.1c0.7,0,1.3,0.1,2,0.2
		c0.6,0.1,1.2,0.3,1.8,0.6c0.6,0.3,1,0.6,1.3,1.1c0.3,0.5,0.4,1.1,0.4,1.9c0,0.6-0.1,1.1-0.3,1.5c-0.2,0.4-0.4,0.8-0.8,1.1
		c-0.3,0.3-0.7,0.5-1.1,0.7c-0.4,0.2-0.9,0.3-1.3,0.4c0.7,0,1.3,0.2,1.7,0.4c0.4,0.2,0.8,0.6,0.9,1.1c0.2,0.5,0.3,0.9,0.4,1.4
		c0.1,0.5,0.2,1,0.3,1.6v0v0v0c0,0,0,0,0,0c0,0.2,0.1,0.4,0.1,0.7c0,0.2,0,0.4,0.1,0.7c0,0.2,0.1,0.4,0.1,0.6
		c0.1,0.2,0.1,0.4,0.2,0.6h-4.4c-0.1-0.1-0.1-0.2-0.1-0.4c0-0.1-0.1-0.3-0.1-0.5c0-0.2,0-0.4,0-0.5c0-0.2,0-0.4,0-0.6v-0.1V58
		c0,0,0,0,0,0v0v-0.1v-0.1c0-0.4-0.1-0.8-0.1-1.1c-0.1-0.4-0.2-0.7-0.3-1c-0.1-0.3-0.3-0.6-0.5-0.7c-0.3-0.2-0.6-0.2-1-0.2l-1.9,0
		v5.6h-4.1V45.5H298.7z"/>
	<path class="st0" d="M313.9,41.2l2.4,3h-2.7l-1.4-1.6l-1.4,1.6h-2.7l2.4-3H313.9z M318.1,45.5v3h-7v2.9h6.5v3h-6.5v2.8h7v2.9h-11.1
		V45.5H318.1z"/>
	<polygon class="st0" points="326.2,45.5 331.1,56.3 331.1,45.5 334.8,45.5 334.8,60.1 329,60.1 324.1,49.1 324.1,60.1 320.5,60.1 
		320.5,45.5 	"/>
	<path class="st0" d="M346.7,49.4c-0.1-0.2-0.3-0.5-0.5-0.7c-0.2-0.2-0.5-0.4-0.8-0.5c-0.3-0.1-0.7-0.2-1.1-0.2
		c-0.6,0-1.1,0.1-1.5,0.3c-0.4,0.2-0.7,0.6-0.8,1c-0.2,0.5-0.3,0.9-0.4,1.4c-0.1,0.5-0.1,1-0.2,1.6v0.1v0.1v0.1v0.1v0.1V53v0.1v0.1
		c0,0.7,0.1,1.3,0.2,1.8c0.1,0.5,0.3,1,0.5,1.4c0.2,0.4,0.5,0.7,0.8,0.9c0.4,0.2,0.8,0.3,1.3,0.3c0.4,0,0.8-0.1,1.1-0.2
		c0.3-0.1,0.6-0.3,0.8-0.5c0.2-0.2,0.4-0.5,0.5-0.7c0.1-0.3,0.2-0.5,0.2-0.8l4.3,0c0,0.1,0,0.2,0,0.3c0,0.1,0,0.2,0,0.3
		c0,0.1,0,0.2-0.1,0.3c0,0.1-0.1,0.2-0.1,0.3c-0.1,0.5-0.4,0.9-0.7,1.4c-0.3,0.4-0.7,0.9-1.2,1.2c-0.5,0.4-1.1,0.7-1.9,0.9
		c-0.7,0.2-1.6,0.3-2.6,0.3c-1.3,0-2.5-0.2-3.5-0.5c-1-0.3-1.7-0.8-2.3-1.5c-0.6-0.6-1-1.4-1.3-2.3c-0.3-0.9-0.5-1.8-0.5-2.9v-0.1
		v-0.1V53v-0.1c0-1.4,0.1-2.6,0.5-3.6c0.3-1,0.8-1.8,1.5-2.4c0.7-0.6,1.4-1,2.3-1.3c0.9-0.3,1.9-0.4,3-0.4c1.2,0,2.3,0.1,3.2,0.3
		c0.9,0.2,1.6,0.6,2.1,1c0.5,0.5,0.9,1,1.2,1.6c0.3,0.6,0.4,1.2,0.4,2l-4.3,0C346.8,49.8,346.8,49.6,346.7,49.4"/>
	<rect x="353.1" y="45.5" class="st0" width="4.1" height="14.6"/>
	<path class="st0" d="M366.6,48.5l-1.9,5.9h3.7L366.6,48.5z M369.3,45.5l5.7,14.6h-4.6l-1-2.7h-5.7l-1,2.7h-4.3l5.9-14.6H369.3z"/>
	<rect x="201.8" y="66.5" class="st0" width="2.2" height="7.9"/>
	<polygon class="st0" points="205.5,66.5 208.5,66.5 211.2,72.4 211.1,66.5 213.1,66.5 213.1,74.4 210.1,74.4 207.4,68.3 
		207.4,74.4 205.5,74.4 	"/>
	<polygon class="st0" points="216.4,68.1 214,68.1 214,66.5 221,66.5 221,68.1 218.6,68.1 218.6,74.4 216.4,74.4 	"/>
	<polygon class="st0" points="221.9,66.6 227.8,66.6 227.8,68.1 224,68.1 224,69.7 227.6,69.7 227.6,71.2 224,71.2 224,72.9 
		227.9,72.9 227.9,74.4 221.9,74.4 	"/>
	<path class="st0" d="M229.1,66.5h3.6c1.4,0,2,0.1,2.4,0.6c0.2,0.2,0.5,0.7,0.5,1.5c0,0.9-0.3,1.2-0.7,1.5c-0.5,0.3-1,0.4-1.2,0.4v0
		c1.5,0,1.6,0.7,1.8,1.9c0.1,0.5,0.2,1.4,0.4,1.9h-2.4c-0.1-0.5-0.2-1.1-0.3-1.8c-0.1-0.9-0.1-1.3-1.1-1.3h-0.9v3.1h-2.2V66.5z
		 M231.3,69.9h0.8c0.5,0,0.7,0,0.9-0.1c0.5-0.2,0.6-0.6,0.6-0.9c0-1-0.9-1-1.5-1h-0.8V69.9z"/>
	<polygon class="st0" points="237,66.5 240,66.5 242.7,72.4 242.6,66.5 244.5,66.5 244.5,74.4 241.6,74.4 238.9,68.3 238.9,74.4 
		237,74.4 	"/>
	<path class="st0" d="M248.5,66.5h2.7l3.1,7.9h-2.5l-0.5-1.6h-3.1l-0.5,1.6h-2.2L248.5,66.5z M250.8,71.4l-1-3.3h0l-1.1,3.3H250.8z"
		/>
	<path class="st0" d="M259.7,69c-0.1-0.8-0.7-1.1-1.3-1.1c-1.3,0-1.7,1.2-1.7,2.6c0,0.5,0,2.5,1.7,2.5c1.2,0,1.3-0.8,1.3-1.1h2.3
		c0,2.5-2.5,2.7-3.5,2.7c-0.8,0-2.1-0.1-3-1c-0.9-0.9-1-2.2-1-3c0-1.1,0.3-2.2,1-3c0.8-0.9,1.8-1.2,3-1.2c1.3,0,2.2,0.3,2.9,1
		c0.6,0.7,0.6,1.4,0.7,1.7H259.7z"/>
	<rect x="263.1" y="66.5" class="st0" width="2.2" height="7.9"/>
	<path class="st0" d="M267.6,67.4c1-1,2.5-1.1,3.1-1.1c3.1,0,4,2.3,4,4.2c0,3.1-2.2,4.1-4.1,4.1c-2.1,0-4-1.2-4-4.1
		C266.5,70,266.6,68.4,267.6,67.4 M270.6,73c1.6,0,1.8-1.4,1.8-2.5c0-1.1-0.3-1.6-0.5-2c-0.3-0.4-0.8-0.6-1.3-0.6
		c-1.4,0-1.8,1.2-1.8,2.6C268.8,71.7,269.2,73,270.6,73"/>
	<polygon class="st0" points="275.9,66.5 278.9,66.5 281.6,72.4 281.6,66.5 283.5,66.5 283.5,74.4 280.5,74.4 277.8,68.3 
		277.8,74.4 275.9,74.4 	"/>
	<path class="st0" d="M287.5,66.5h2.7l3.1,7.9h-2.5l-0.5-1.6h-3.1l-0.5,1.6h-2.2L287.5,66.5z M289.7,71.4l-1-3.3h0l-1.1,3.3H289.7z"
		/>
	<polygon class="st0" points="294.1,66.5 296.3,66.5 296.3,72.9 299.8,72.9 299.8,74.4 294.1,74.4 	"/>
</g>
</svg>
