<?xml version="1.0" encoding="utf-8"?>
<!-- Generator: Adobe Illustrator 26.3.1, SVG Export Plug-In . SVG Version: 6.00 Build 0)  -->
<svg xmlns="http://www.w3.org/2000/svg" xmlns:xlink="http://www.w3.org/1999/xlink" id="Grupo_5938" data-name="Grupo 5938" width="110" height="110" viewBox="0 0 101.318 80.981">
<style type="text/css">
	.st0{fill:#FFFFFF;}
</style>
<g>
	<g>
		<g>
			<g>
				<path class="st0" d="M32.3,13.2l-5.5,4.9c-1.9-2.7-3.9-4-5.9-4c-1,0-1.8,0.3-2.4,0.8c-0.6,0.5-0.9,1.1-0.9,1.8
					c0,0.7,0.2,1.3,0.7,1.9c0.6,0.8,2.4,2.5,5.5,5c2.8,2.4,4.6,3.9,5.2,4.5c1.5,1.5,2.6,3,3.2,4.4c0.6,1.4,0.9,2.9,0.9,4.6
					c0,3.2-1.1,5.9-3.3,7.9C27.5,47,24.6,48,21,48c-2.8,0-5.2-0.7-7.3-2c-2.1-1.4-3.8-3.5-5.3-6.4l6.3-3.8c1.9,3.5,4.1,5.2,6.5,5.2
					c1.3,0,2.4-0.4,3.2-1.1c0.9-0.7,1.3-1.6,1.3-2.6c0-0.9-0.3-1.8-1-2.7c-0.7-0.9-2.1-2.2-4.3-4.1c-4.3-3.5-7-6.2-8.3-8
					c-1.2-1.9-1.9-3.8-1.9-5.6c0-2.7,1-5,3.1-7C15.4,7.9,18,6.9,21,6.9c2,0,3.8,0.4,5.6,1.4C28.4,9.2,30.3,10.8,32.3,13.2z"/>
				<path class="st0" d="M64.4,34.7H41.1c0.3,2.1,1.2,3.7,2.7,4.9c1.5,1.2,3.3,1.8,5.6,1.8c2.7,0,5-0.9,7-2.8l6.1,2.9
					c-1.5,2.2-3.4,3.8-5.5,4.8c-2.1,1-4.7,1.6-7.6,1.6c-4.5,0-8.2-1.4-11.1-4.3c-2.8-2.9-4.3-6.4-4.3-10.8c0-4.4,1.4-8.1,4.3-11
					c2.8-2.9,6.4-4.4,10.7-4.4c4.6,0,8.3,1.5,11.1,4.4c2.9,2.9,4.3,6.8,4.3,11.6L64.4,34.7z M57.2,28.9c-0.5-1.6-1.4-2.9-2.8-3.9
					c-1.4-1-3-1.5-4.9-1.5c-2,0-3.8,0.6-5.3,1.7c-1,0.7-1.8,2-2.7,3.8H57.2z"/>
				<path class="st0" d="M83.9,22.1l-4.5,4.5c-1.8-1.8-3.5-2.7-5-2.7c-0.8,0-1.5,0.2-1.9,0.5c-0.5,0.3-0.7,0.8-0.7,1.3
					c0,0.4,0.1,0.7,0.4,1.1c0.3,0.3,1,0.8,2.2,1.3l2.7,1.3c2.8,1.4,4.7,2.8,5.8,4.2c1,1.4,1.6,3.1,1.6,5c0,2.6-0.9,4.7-2.8,6.4
					c-1.9,1.7-4.4,2.6-7.6,2.6c-4.2,0-7.6-1.6-10.1-4.9l4.5-4.9c0.8,1,1.9,1.8,3,2.4c1.1,0.6,2.2,0.9,3,0.9c1,0,1.7-0.2,2.3-0.7
					c0.6-0.5,0.9-1,0.9-1.6c0-1.1-1.1-2.2-3.2-3.3L72,34.5c-4.7-2.4-7-5.3-7-8.9c0-2.3,0.9-4.2,2.6-5.9c1.8-1.6,4-2.4,6.8-2.4
					c1.9,0,3.7,0.4,5.3,1.2C81.3,19.4,82.7,20.6,83.9,22.1z"/>
				<path class="st0" d="M89.6,5.5c1.1,0,2,0.4,2.8,1.2c0.8,0.8,1.2,1.8,1.2,2.9c0,1.1-0.4,2-1.2,2.8c-0.8,0.8-1.7,1.2-2.8,1.2
					c-1.1,0-2.1-0.4-2.8-1.2c-0.8-0.8-1.2-1.7-1.2-2.8c0-1.1,0.4-2,1.2-2.8C87.6,5.9,88.5,5.5,89.6,5.5z"/>
				<rect x="86" y="18.1" class="st0" width="7.3" height="28.9"/>
			</g>
			<g>
				<path class="st0" d="M43.9,7.5l-1.4,0.8c-0.3-0.3-0.5-0.5-0.8-0.6c-0.3-0.1-0.6-0.2-0.9-0.2c-0.6,0-1.2,0.2-1.6,0.6
					c-0.4,0.4-0.6,0.9-0.6,1.5c0,0.6,0.2,1.1,0.6,1.4c0.4,0.4,0.9,0.6,1.5,0.6c0.8,0,1.4-0.3,1.8-0.8l1.4,0.9
					c-0.7,1-1.8,1.4-3.1,1.4c-1.2,0-2.2-0.4-2.9-1.1c-0.7-0.7-1-1.6-1-2.5c0-0.7,0.2-1.3,0.5-1.8c0.3-0.6,0.8-1,1.4-1.3
					c0.6-0.3,1.3-0.5,2-0.5c0.7,0,1.3,0.1,1.8,0.4C43.1,6.6,43.6,7,43.9,7.5z"/>
				<path class="st0" d="M48.4,5.9c0.7,0,1.3,0.2,1.8,0.5c0.6,0.3,1,0.8,1.3,1.3c0.3,0.6,0.5,1.2,0.5,1.8c0,0.7-0.2,1.3-0.5,1.8
					c-0.3,0.6-0.8,1-1.3,1.3c-0.6,0.3-1.2,0.5-1.8,0.5c-1,0-1.8-0.4-2.5-1.1c-0.7-0.7-1.1-1.6-1.1-2.6c0-1.1,0.4-2,1.2-2.7
					C46.7,6.2,47.5,5.9,48.4,5.9z M48.4,7.5c-0.5,0-1,0.2-1.3,0.6c-0.4,0.4-0.5,0.9-0.5,1.4c0,0.6,0.2,1.1,0.5,1.5
					c0.4,0.4,0.8,0.6,1.3,0.6c0.5,0,1-0.2,1.4-0.6c0.4-0.4,0.5-0.9,0.5-1.5c0-0.6-0.2-1.1-0.5-1.4S49,7.5,48.4,7.5z"/>
				<path class="st0" d="M53,3.4h1.7V13H53V3.4z"/>
				<path class="st0" d="M62.9,10h-5.6c0.1,0.5,0.3,0.9,0.6,1.2s0.8,0.4,1.3,0.4c0.6,0,1.2-0.2,1.7-0.7l1.5,0.7
					c-0.4,0.5-0.8,0.9-1.3,1.1c-0.5,0.2-1.1,0.4-1.8,0.4c-1.1,0-2-0.3-2.6-1c-0.7-0.7-1-1.5-1-2.6c0-1.1,0.3-1.9,1-2.6s1.5-1,2.6-1
					c1.1,0,2,0.3,2.7,1s1,1.6,1,2.8L62.9,10z M61.1,8.7C61,8.3,60.8,8,60.5,7.7c-0.3-0.2-0.7-0.4-1.2-0.4c-0.5,0-0.9,0.1-1.3,0.4
					c-0.2,0.2-0.4,0.5-0.6,0.9H61.1z M59.5,2.4h2.1l-2.3,2.5H58L59.5,2.4z"/>
				<path class="st0" d="M69.1,6.1h1.7V12c0,1.2-0.2,2-0.7,2.6c-0.6,0.7-1.6,1.1-2.9,1.1c-0.7,0-1.2-0.1-1.7-0.3s-0.9-0.4-1.2-0.7
					c-0.3-0.3-0.6-0.7-0.7-1.2h1.9c0.2,0.2,0.4,0.3,0.7,0.4c0.3,0.1,0.6,0.1,0.9,0.1c0.5,0,0.8-0.1,1.1-0.2s0.5-0.3,0.6-0.6
					s0.2-0.6,0.2-1.2c-0.3,0.3-0.6,0.5-1,0.7C67.8,12.9,67.4,13,67,13c-0.9,0-1.7-0.3-2.4-1c-0.6-0.7-1-1.5-1-2.5c0-1.1,0.3-2,1-2.6
					c0.6-0.6,1.3-0.9,2.2-0.9c0.4,0,0.8,0.1,1.1,0.2c0.4,0.1,0.7,0.4,1.1,0.7V6.1z M67.3,7.5c-0.5,0-1,0.2-1.4,0.5
					c-0.4,0.4-0.5,0.8-0.5,1.4c0,0.6,0.2,1,0.5,1.4c0.4,0.4,0.8,0.6,1.4,0.6c0.5,0,1-0.2,1.3-0.5c0.3-0.4,0.5-0.8,0.5-1.4
					c0-0.6-0.2-1-0.5-1.4C68.3,7.7,67.8,7.5,67.3,7.5z"/>
				<path class="st0" d="M72.9,3.2c0.3,0,0.6,0.1,0.8,0.3C73.9,3.8,74,4,74,4.4c0,0.3-0.1,0.6-0.3,0.8c-0.2,0.2-0.5,0.3-0.8,0.3
					c-0.3,0-0.6-0.1-0.8-0.3c-0.2-0.2-0.3-0.5-0.3-0.8c0-0.3,0.1-0.6,0.3-0.8C72.3,3.3,72.6,3.2,72.9,3.2z M72,6.1h1.7V13H72V6.1z"
					/>
				<path class="st0" d="M78.3,5.9c0.7,0,1.3,0.2,1.8,0.5c0.6,0.3,1,0.8,1.3,1.3c0.3,0.6,0.5,1.2,0.5,1.8c0,0.7-0.2,1.3-0.5,1.8
					c-0.3,0.6-0.8,1-1.3,1.3c-0.6,0.3-1.2,0.5-1.8,0.5c-1,0-1.8-0.4-2.5-1.1s-1.1-1.6-1.1-2.6c0-1.1,0.4-2,1.2-2.7
					C76.6,6.2,77.4,5.9,78.3,5.9z M78.3,7.5c-0.5,0-1,0.2-1.3,0.6c-0.4,0.4-0.5,0.9-0.5,1.4c0,0.6,0.2,1.1,0.5,1.5
					c0.4,0.4,0.8,0.6,1.3,0.6c0.5,0,1-0.2,1.4-0.6c0.4-0.4,0.5-0.9,0.5-1.5c0-0.6-0.2-1.1-0.5-1.4C79.3,7.7,78.8,7.5,78.3,7.5z"/>
			</g>
		</g>
	</g>
	<g>
		<path class="st0" d="M1.4,53.1l2.3,18.7l92.1,11l4.8-29.6L1.4,53.1z M12.1,67.9h-1.7V61h1.7V67.9z M12,60.1
			c-0.2,0.2-0.5,0.3-0.8,0.3c-0.3,0-0.6-0.1-0.8-0.3c-0.2-0.2-0.3-0.5-0.3-0.8c0-0.3,0.1-0.6,0.3-0.8c0.2-0.2,0.5-0.3,0.8-0.3
			c0.3,0,0.6,0.1,0.8,0.3c0.2,0.2,0.3,0.5,0.3,0.8C12.4,59.6,12.3,59.9,12,60.1z M19.8,67.9h-1.7v-3c0-0.8,0-1.4-0.1-1.6
			c-0.1-0.3-0.2-0.5-0.4-0.6c-0.2-0.1-0.4-0.2-0.7-0.2c-0.4,0-0.7,0.1-0.9,0.4c-0.3,0.2-0.4,0.6-0.5,1c-0.1,0.2-0.1,0.7-0.1,1.4v2.8
			h-1.7V61h1.7v0.7c0.4-0.3,0.7-0.6,1.1-0.7c0.3-0.1,0.6-0.2,1-0.2c0.7,0,1.3,0.2,1.7,0.7c0.4,0.4,0.6,1,0.6,1.8V67.9z M24.5,62.5
			h-1v5.4h-1.7v-5.4h-0.9V61h0.9v-2.5h1.7V61h1V62.5z M32.3,65h-5.6c0.1,0.5,0.3,0.9,0.6,1.2c0.3,0.3,0.8,0.4,1.3,0.4
			c0.6,0,1.2-0.2,1.7-0.7l1.5,0.7c-0.4,0.5-0.8,0.9-1.3,1.1c-0.5,0.2-1.1,0.4-1.8,0.4c-1.1,0-2-0.3-2.6-1c-0.7-0.7-1-1.5-1-2.6
			c0-1.1,0.3-1.9,1-2.6c0.7-0.7,1.5-1,2.6-1c1.1,0,2,0.3,2.7,1c0.7,0.7,1,1.6,1,2.8L32.3,65z M36.5,62.5c-0.2-0.1-0.4-0.2-0.5-0.2
			c-0.3,0-0.5,0.2-0.7,0.5c-0.2,0.3-0.3,1-0.3,1.9l0,0.3v2.8h-1.7V61h1.5v0.9c0.2-0.3,0.4-0.6,0.6-0.8c0.3-0.2,0.6-0.3,0.9-0.3
			c0.2,0,0.5,0.1,0.7,0.2L36.5,62.5z M44,67.9h-1.7v-3c0-0.8,0-1.4-0.1-1.6c-0.1-0.3-0.2-0.5-0.4-0.6c-0.2-0.1-0.4-0.2-0.7-0.2
			c-0.4,0-0.7,0.1-0.9,0.4c-0.3,0.2-0.4,0.6-0.5,1c-0.1,0.2-0.1,0.7-0.1,1.4v2.8h-1.7V61h1.7v0.7c0.4-0.3,0.7-0.6,1.1-0.7
			c0.3-0.1,0.6-0.2,1-0.2c0.7,0,1.3,0.2,1.7,0.7c0.4,0.4,0.6,1,0.6,1.8V67.9z M52.5,67.9h-1.7v-0.7c-0.3,0.3-0.7,0.6-1,0.7
			c-0.3,0.1-0.7,0.2-1.1,0.2c-0.9,0-1.7-0.3-2.3-1c-0.7-0.7-1-1.6-1-2.6c0-1.1,0.3-1.9,0.9-2.6c0.6-0.7,1.4-1,2.3-1
			c0.4,0,0.8,0.1,1.2,0.2c0.4,0.2,0.7,0.4,1,0.7V61h1.7V67.9z M56.2,66c0.4,0.4,0.9,0.6,1.5,0.6c0.8,0,1.4-0.3,1.8-0.8l1.4,0.9
			c-0.7,1-1.8,1.4-3.1,1.4c-1.2,0-2.2-0.4-2.9-1.1c-0.7-0.7-1-1.6-1-2.5c0-0.7,0.2-1.3,0.5-1.8c0.3-0.6,0.8-1,1.4-1.3
			c0.6-0.3,1.3-0.5,2-0.5c0.7,0,1.3,0.1,1.8,0.4c0.5,0.3,1,0.7,1.3,1.2l-1.4,0.8c-0.3-0.3-0.5-0.5-0.8-0.6c-0.3-0.1-0.6-0.2-0.9-0.2
			c-0.6,0-1.2,0.2-1.6,0.6s-0.6,0.9-0.6,1.5C55.6,65.1,55.8,65.6,56.2,66z M64.1,67.9h-1.7V61h1.7V67.9z M64,60.1
			c-0.2,0.2-0.5,0.3-0.8,0.3c-0.3,0-0.6-0.1-0.8-0.3c-0.2-0.2-0.3-0.5-0.3-0.8c0-0.3,0.1-0.6,0.3-0.8c0.2-0.2,0.5-0.3,0.8-0.3
			c0.3,0,0.6,0.1,0.8,0.3c0.2,0.2,0.3,0.5,0.3,0.8C64.3,59.6,64.2,59.9,64,60.1z M72.1,66.3c-0.3,0.6-0.8,1-1.3,1.3
			c-0.6,0.3-1.2,0.5-1.8,0.5c-1,0-1.8-0.4-2.5-1.1c-0.7-0.7-1.1-1.6-1.1-2.6c0-1.1,0.4-2,1.2-2.7c0.7-0.6,1.5-0.9,2.4-0.9
			c0.7,0,1.3,0.2,1.8,0.5c0.6,0.3,1,0.8,1.3,1.3c0.3,0.6,0.5,1.2,0.5,1.8C72.6,65.1,72.4,65.7,72.1,66.3z M80.1,67.9h-1.7v-3
			c0-0.8,0-1.4-0.1-1.6c-0.1-0.3-0.2-0.5-0.4-0.6c-0.2-0.1-0.4-0.2-0.7-0.2c-0.4,0-0.7,0.1-0.9,0.4c-0.3,0.2-0.4,0.6-0.5,1
			c-0.1,0.2-0.1,0.7-0.1,1.4v2.8H74V61h1.7v0.7c0.4-0.3,0.7-0.6,1.1-0.7c0.3-0.1,0.6-0.2,1-0.2c0.7,0,1.3,0.2,1.7,0.7
			c0.4,0.4,0.6,1,0.6,1.8V67.9z M88.6,67.9h-1.7v-0.7c-0.3,0.3-0.7,0.6-1,0.7c-0.3,0.1-0.7,0.2-1.1,0.2c-0.9,0-1.7-0.3-2.3-1
			c-0.7-0.7-1-1.6-1-2.6c0-1.1,0.3-1.9,0.9-2.6c0.6-0.7,1.4-1,2.3-1c0.4,0,0.8,0.1,1.2,0.2c0.4,0.2,0.7,0.4,1,0.7V61h1.7V67.9z
			 M91.9,67.9h-1.7v-9.6h1.7V67.9z"/>
		<path class="st0" d="M68.9,62.5c-0.5,0-1,0.2-1.3,0.6c-0.4,0.4-0.5,0.9-0.5,1.4c0,0.6,0.2,1.1,0.5,1.5c0.4,0.4,0.8,0.6,1.3,0.6
			c0.5,0,1-0.2,1.4-0.6c0.4-0.4,0.5-0.9,0.5-1.5c0-0.6-0.2-1.1-0.5-1.4C69.9,62.7,69.5,62.5,68.9,62.5z"/>
		<path class="st0" d="M48.9,62.5c-0.5,0-1,0.2-1.3,0.6c-0.4,0.4-0.5,0.9-0.5,1.5c0,0.6,0.2,1.1,0.5,1.5c0.4,0.4,0.8,0.6,1.3,0.6
			c0.5,0,1-0.2,1.4-0.6c0.4-0.4,0.5-0.9,0.5-1.5c0-0.6-0.2-1.1-0.5-1.5C49.9,62.6,49.5,62.5,48.9,62.5z"/>
		<path class="st0" d="M29.9,62.7c-0.3-0.2-0.7-0.4-1.2-0.4c-0.5,0-0.9,0.1-1.3,0.4c-0.2,0.2-0.4,0.5-0.6,0.9h3.8
			C30.5,63.2,30.2,62.9,29.9,62.7z"/>
		<path class="st0" d="M85,62.5c-0.5,0-1,0.2-1.3,0.6c-0.4,0.4-0.5,0.9-0.5,1.5c0,0.6,0.2,1.1,0.5,1.5c0.4,0.4,0.8,0.6,1.3,0.6
			c0.5,0,1-0.2,1.4-0.6c0.4-0.4,0.5-0.9,0.5-1.5c0-0.6-0.2-1.1-0.5-1.5C86,62.6,85.6,62.5,85,62.5z"/>
	</g>
</g>
</svg>
