<?xml version="1.0" encoding="utf-8"?>
<!-- Generator: Adobe Illustrator 26.3.1, SVG Export Plug-In . SVG Version: 6.00 Build 0)  -->
<svg version="1.1" id="Camada_1" xmlns="http://www.w3.org/2000/svg" xmlns:xlink="http://www.w3.org/1999/xlink" x="0px" y="0px"
	 viewBox="0 0 303.3 48.2" style="enable-background:new 0 0 303.3 48.2;" xml:space="preserve">
<style type="text/css">
	.st0{fill:#FFFFFF;}
</style>
<g>
	<path class="st0" d="M136.2,7.9V1.4H1.4v6.5h9.7v1.2H1.4v6.6h9.7v1.2H1.4v6.6h9.7v1.2H1.4v6.6h9.7v1.2H1.4v6.6h9.7v1.2H1.4v6.5
		h134.8v-6.5h-9.7v-1.2h9.7v-6.6h-9.7v-1.2h9.7v-6.6h-9.7v-1.2h9.7v-6.6h-9.7v-1.2h9.7V9.1h-9.7V7.9H136.2z M44.1,17.5H35
		c0.2-0.8,0.2-1.2,0.2-1.6c0-1.8-1.2-2.9-3.5-2.9c-2.9,0-5.1,1.8-5.1,4.2c0,1.1,0.4,1.9,2.8,2.6l5.7,1.6c2.2,0.6,3.8,1.2,4.9,1.9
		c2.3,1.5,2.6,3.6,2.6,5.1c0,2.9-1.3,6.5-4.3,9c-2.8,2.3-7.1,3.8-12.5,3.8c-8,0-12.2-2.8-12.2-8.3c0-0.9,0.1-1.8,0.3-2.7h9
		c-0.1,0.5-0.2,1-0.2,1.4c0,2.4,1.5,3.6,4.6,3.6c3.6,0,5.7-1.9,5.7-4.5c0-1.1-0.7-1.9-2.2-2.3l-7.4-2c-4.8-1.3-6.5-3.7-6.5-6.9
		c0-1.9,0.5-3.7,1.5-5.3c2.3-4,7.3-6.8,14.5-6.8c7.7,0,11.4,2.5,11.4,7.4C44.4,15.4,44.3,16.4,44.1,17.5z M73.2,20.8l-1.4,6.2H57.2
		L55.8,34h15.9l-1.4,6.3H45.5l6.9-32.5h24.5l-1.3,6.2H60l-1.4,6.8H73.2z M106.5,17.5h-9.1c0.2-0.8,0.2-1.2,0.2-1.6
		c0-1.8-1.2-2.9-3.5-2.9c-2.9,0-5.1,1.8-5.1,4.2c0,1.1,0.4,1.9,2.8,2.6l5.7,1.6c2.2,0.6,3.8,1.2,4.9,1.9c2.3,1.5,2.6,3.6,2.6,5.1
		c0,2.9-1.3,6.5-4.3,9c-2.8,2.3-7.1,3.8-12.5,3.8c-8,0-12.2-2.8-12.2-8.3c0-0.9,0.1-1.8,0.3-2.7h9c-0.1,0.5-0.2,1-0.2,1.4
		c0,2.4,1.5,3.6,4.6,3.6c3.6,0,5.7-1.9,5.7-4.5c0-1.1-0.7-1.9-2.2-2.3l-7.4-2c-4.8-1.3-6.5-3.7-6.5-6.9c0-1.9,0.5-3.7,1.5-5.3
		c2.3-4,7.3-6.8,14.5-6.8c7.7,0,11.4,2.5,11.4,7.4C106.9,15.4,106.8,16.4,106.5,17.5z M117,40.3h-9.3l6.9-32.5h9.3L117,40.3z"/>
	<g>
		<g>
			<path class="st0" d="M155.4,1.8v2.5h-6.3V7h5.9v2.5h-5.9v2.8h6.5V15h-10.1V1.8H155.4z"/>
			<path class="st0" d="M168.5,5.5L168.5,5.5l-3.7,0.1V5.5c0-1.2-0.6-1.8-1.8-1.8c-1,0-1.7,0.6-1.7,1.4c0,0.7,0.3,1.1,1.4,1.4
				l2.4,0.6c0.9,0.2,1.6,0.5,2.2,0.8c1.1,0.6,1.6,1.6,1.6,3c0,2.8-2.2,4.3-5.8,4.3c-3.8,0-5.8-1.5-5.8-4.5h3.7
				c0,1.4,0.8,2.1,2.2,2.1c1.2,0,2-0.5,2-1.5c0-0.7-0.3-1.1-1.1-1.3l-3.4-0.9c-1.6-0.4-2.3-1-2.8-1.7c-0.3-0.6-0.5-1.2-0.5-1.9
				c0-2.5,2.1-4.1,5.6-4.1C166.8,1.4,168.5,2.7,168.5,5.5z"/>
			<path class="st0" d="M179.6,5.9c-0.2-1.3-1.1-1.8-2.1-1.8c-1.9,0-2.9,1.5-2.9,4.4c0,2.7,1,4.2,2.9,4.2c1.3,0,2.1-0.6,2.2-1.9h3.8
				c0,2.9-2.2,4.5-6,4.5c-4.4,0-6.7-2.5-6.7-6.8c0-3.1,1.3-5.6,3.9-6.6c0.8-0.3,1.7-0.4,2.8-0.4c3.8,0,5.9,1.8,5.9,4.4H179.6z"/>
			<path class="st0" d="M198.5,8.4c0,4.4-2.8,6.9-6.9,6.9c-4.1,0-6.8-2.5-6.8-6.9c0-2.3,0.7-4.2,2-5.4c1.2-1.1,3.2-1.6,5-1.6
				C196.1,1.4,198.5,4.1,198.5,8.4z M191.7,12.6c2.1,0,3.1-1.5,3.1-4.3c0-2.6-0.8-4.3-3.1-4.3c-2,0-3.1,1.4-3.1,4.4
				C188.6,11.1,189.6,12.6,191.7,12.6z"/>
			<path class="st0" d="M204.1,1.7v10.6h5.9V15h-9.7V1.7H204.1z"/>
			<path class="st0" d="M220.4,1.7l5.2,13.2h-4.1l-0.9-2.7h-5.3l-0.9,2.7h-3.7l5.2-13.2H220.4z M218,4.3l-1.8,5.6h3.6L218,4.3
				L218,4.3z"/>
		</g>
		<g>
			<path class="st0" d="M151.1,20.2c1.7,0,3.3,0.2,4.4,0.8c2.1,1.1,3,3.3,3,5.8c0,1.7-0.3,3.3-1.3,4.5c-1,1.3-2.5,2.2-6,2.2h-5.9
				V20.2H151.1z M150.8,30.9c2.5,0,3.9-1.3,3.9-4.1c0-1.5-0.4-3-1.9-3.7c-0.8-0.3-1.4-0.3-3.6-0.4v8.2H150.8z"/>
			<path class="st0" d="M170.7,20.3v2.5h-6.3v2.8h5.9v2.5h-5.9v2.8h6.5v2.6h-10.1V20.3H170.7z"/>
			<path class="st0" d="M184.3,20.2c1.5,0,2.4,0.1,3,0.3c1.1,0.5,1.8,1.5,1.8,3.2c0,0.7-0.1,1.2-0.4,1.6c-0.6,1-1.8,1.4-2.9,1.5v0.1
				c2.5,0.1,2.7,1.2,3,3.1c0.1,0.9,0.2,2.1,0.6,3.4h-4c-0.1-0.5-0.2-1.1-0.3-1.8l-0.2-1.6c-0.1-1.4-0.5-1.8-1.8-1.8h-1.5v5.2H178
				V20.2H184.3z M181.7,25.9h2c0.7,0,1.2-0.1,1.5-0.6c0.2-0.2,0.3-0.6,0.3-1.1c0-1.1-0.6-1.6-2.3-1.6h-1.6V25.9z"/>
			<path class="st0" d="M201.2,20.3v2.5h-6.3v2.8h5.9v2.5h-5.9v2.8h6.5v2.6h-10.1V20.3H201.2z"/>
			<path class="st0" d="M212.9,20.3v2.5h-5.7v3.1h5.3v2.5h-5.3v5h-3.6V20.3H212.9z"/>
			<path class="st0" d="M224.7,20.3v2.5h-6.3v2.8h5.9v2.5h-5.9v2.8h6.5v2.6h-10.1V20.3H224.7z"/>
			<path class="st0" d="M233.2,20.2c1.5,0,2.4,0.1,3,0.3c1.1,0.5,1.8,1.5,1.8,3.2c0,0.7-0.1,1.2-0.4,1.6c-0.6,1-1.8,1.4-2.9,1.5v0.1
				c2.5,0.1,2.7,1.2,3,3.1c0.1,0.9,0.2,2.1,0.6,3.4h-4c-0.1-0.5-0.2-1.1-0.3-1.8L234,30c-0.1-1.4-0.5-1.8-1.8-1.8h-1.5v5.2h-3.7
				V20.2H233.2z M230.6,25.9h2c0.7,0,1.2-0.1,1.5-0.6c0.2-0.2,0.3-0.6,0.3-1.1c0-1.1-0.6-1.6-2.3-1.6h-1.6V25.9z"/>
			<path class="st0" d="M250.1,20.3v2.5h-6.3v2.8h5.9v2.5h-5.9v2.8h6.5v2.6h-10.1V20.3H250.1z M246.5,16.1l2.2,2.7h-2.4l-1.4-1.4
				l-1.4,1.4h-2.4l2.2-2.7H246.5z"/>
			<path class="st0" d="M257.5,20.2l4.5,9.9l0-9.9h3.2v13.2h-5l-4.6-10.3l0,10.3h-3.2V20.2H257.5z"/>
			<path class="st0" d="M276.1,24.4c-0.2-1.3-1.1-1.8-2.1-1.8c-1.9,0-2.9,1.5-2.9,4.4c0,2.7,1,4.2,2.9,4.2c1.3,0,2.1-0.6,2.2-1.9
				h3.8c0,2.9-2.2,4.5-6,4.5c-4.4,0-6.7-2.5-6.7-6.8c0-3.1,1.3-5.6,3.9-6.6c0.8-0.3,1.7-0.4,2.8-0.4c3.8,0,5.9,1.8,5.9,4.4H276.1z"
				/>
			<path class="st0" d="M285.6,20.2v13.2h-3.8V20.2H285.6z"/>
			<path class="st0" d="M296.7,20.2l5.2,13.2h-4.1l-0.9-2.7h-5.3l-0.9,2.7H287l5.2-13.2H296.7z M294.2,22.8l-1.8,5.6h3.6L294.2,22.8
				L294.2,22.8z"/>
		</g>
		<g>
			<path class="st0" d="M148.9,38.6c1,0,2,0.1,2.7,0.5c1.3,0.7,1.8,2,1.8,3.5c0,1.1-0.2,2-0.8,2.7c-0.6,0.8-1.5,1.3-3.6,1.3h-3.6v-8
				H148.9z M148.7,45.1c1.5,0,2.4-0.8,2.4-2.5c0-0.9-0.2-1.8-1.2-2.2c-0.5-0.2-0.9-0.2-2.2-0.2v4.9H148.7z"/>
			<path class="st0" d="M159.3,38.6l3.2,8H160l-0.6-1.6h-3.2l-0.5,1.6h-2.2l3.2-8H159.3z M157.8,40.2l-1.1,3.4h2.2L157.8,40.2
				L157.8,40.2z"/>
			<path class="st0" d="M168.1,38.6v8h-2.3v-8H168.1z"/>
			<path class="st0" d="M172,38.6l2.7,6l0-6h1.9v8h-3l-2.8-6.2l0,6.2h-2v-8H172z"/>
			<path class="st0" d="M181,38.6c1,0,2,0.1,2.7,0.5c1.3,0.7,1.8,2,1.8,3.5c0,1.1-0.2,2-0.8,2.7c-0.6,0.8-1.5,1.3-3.6,1.3h-3.6v-8
				H181z M180.8,45.1c1.5,0,2.4-0.8,2.4-2.5c0-0.9-0.2-1.8-1.2-2.2c-0.5-0.2-0.9-0.2-2.2-0.2v4.9H180.8z"/>
			<path class="st0" d="M188.4,38.6v4.8c0,0.4,0,0.7,0.2,1c0.3,0.6,0.9,0.8,1.5,0.8c1.1,0,1.6-0.6,1.6-1.9v-4.7h2.2v4.6
				c0,1.4-0.3,2.3-1.2,3c-0.6,0.4-1.4,0.6-2.6,0.6c-1.6,0-2.9-0.4-3.5-1.6c-0.2-0.5-0.3-1.1-0.3-1.8l0-4.8H188.4z M192.4,36.1
				l-2,1.6h-1.5l1.2-1.6H192.4z"/>
			<path class="st0" d="M201.1,40.9L201.1,40.9l-2.2,0v0c0-0.7-0.4-1.1-1.1-1.1c-0.6,0-1,0.4-1,0.8c0,0.4,0.2,0.7,0.8,0.8l1.5,0.4
				c0.5,0.1,1,0.3,1.3,0.5c0.7,0.4,1,1,1,1.8c0,1.7-1.4,2.6-3.5,2.6c-2.3,0-3.5-0.9-3.5-2.7h2.2c0,0.8,0.5,1.2,1.3,1.2
				c0.7,0,1.2-0.3,1.2-0.9c0-0.4-0.2-0.6-0.7-0.8l-2-0.5c-1-0.3-1.4-0.6-1.7-1.1c-0.2-0.3-0.3-0.7-0.3-1.1c0-1.5,1.2-2.5,3.4-2.5
				C200,38.4,201.1,39.2,201.1,40.9z"/>
			<path class="st0" d="M208.3,38.6v1.6h-2.5v6.4h-2.2v-6.4h-2.4v-1.6H208.3z"/>
			<path class="st0" d="M212.3,38.6c0.9,0,1.5,0.1,1.8,0.2c0.7,0.3,1.1,0.9,1.1,1.9c0,0.4-0.1,0.7-0.2,1c-0.4,0.6-1.1,0.8-1.7,0.9v0
				c1.5,0.1,1.7,0.7,1.8,1.9c0.1,0.6,0.1,1.3,0.4,2.1H213c-0.1-0.3-0.1-0.6-0.2-1.1l-0.1-1c-0.1-0.9-0.3-1.1-1.1-1.1h-0.9v3.1h-2.2
				v-8H212.3z M210.7,42.1h1.2c0.4,0,0.7-0.1,0.9-0.3c0.1-0.1,0.2-0.4,0.2-0.6c0-0.7-0.3-1-1.4-1h-1V42.1z"/>
			<path class="st0" d="M218,38.6v8h-2.3v-8H218z"/>
			<path class="st0" d="M224,38.6l3.2,8h-2.5l-0.6-1.6h-3.2l-0.5,1.6h-2.2l3.2-8H224z M222.6,40.2l-1.1,3.4h2.2L222.6,40.2
				L222.6,40.2z"/>
		</g>
	</g>
</g>
</svg>
